<svg version="1.0" xmlns="http://www.w3.org/2000/svg"
 width="1024.000000pt" height="768.000000pt" viewBox="0 0 1024.000000 768.000000"
 preserveAspectRatio="xMidYMid meet">

<g transform="translate(0.000000,768.000000) scale(0.100000,-0.100000)"
fill="#000000" stroke="none">
<path d="M0 3840 l0 -3840 5120 0 5120 0 0 1571 c0 1454 -1 1572 -17 1587 -12
12 -18 13 -21 4 -5 -16 -39 -16 -45 1 -4 8 -14 3 -31 -16 -21 -23 -33 -27 -76
-27 -40 0 -50 -3 -50 -17 0 -15 -1 -15 -18 0 -21 19 -152 25 -152 7 0 -5 -13
-10 -30 -10 -16 0 -30 5 -30 10 0 16 -56 11 -71 -6 -12 -14 -14 -14 -20 3 -7
16 -8 16 -8 1 -1 -23 -19 -32 -36 -18 -10 9 -15 7 -19 -7 -5 -15 -14 -18 -48
-15 -24 3 -46 10 -51 16 -5 7 -15 2 -32 -16 -20 -24 -32 -28 -75 -28 -38 0
-50 4 -50 15 0 11 -11 15 -40 15 -29 0 -40 -4 -40 -15 0 -9 -9 -15 -25 -15
-16 0 -25 6 -25 15 0 8 -7 15 -15 15 -8 0 -15 -7 -15 -15 0 -8 -5 -15 -11 -15
-6 0 -20 -11 -31 -25 -28 -35 -38 -31 -38 15 0 22 -5 40 -11 40 -25 0 -47 -22
-54 -52 -4 -18 -9 -27 -12 -20 -6 15 -163 17 -163 2 0 -6 -35 -10 -84 -10 -62
0 -87 -4 -96 -15 -9 -10 -32 -15 -76 -15 -50 0 -64 -3 -64 -15 0 -11 -11 -15
-40 -15 -27 0 -43 5 -46 15 -12 30 -40 16 -53 -25 -10 -33 -16 -40 -36 -40
-22 0 -25 4 -25 40 0 22 -4 40 -10 40 -5 0 -10 -17 -10 -37 0 -21 -5 -45 -10
-53 -6 -10 -10 -11 -10 -2 0 6 -6 12 -14 12 -10 0 -16 -14 -19 -42 l-4 -43 -1
43 -2 42 -140 0 -140 0 0 -25 c0 -22 -4 -25 -40 -25 -29 0 -40 -4 -40 -15 0
-8 -5 -15 -11 -15 -6 0 -20 -11 -31 -25 -16 -21 -28 -25 -69 -25 -27 0 -49 5
-49 10 0 6 -33 10 -80 10 l-80 0 -1 -27 c-1 -17 -3 -21 -6 -11 -6 23 -75 25
-93 3 -7 -8 -21 -15 -31 -15 -15 0 -19 -8 -20 -42 -2 -30 -3 -35 -6 -15 -4 25
-8 27 -48 27 -36 0 -45 -4 -51 -22 -4 -13 -2 -24 5 -26 16 -5 13 -32 -4 -32
-8 0 -15 7 -15 15 0 8 -7 15 -16 15 -9 0 -22 7 -28 16 -11 14 -13 14 -25 0
-11 -14 -11 -16 3 -16 9 0 16 -7 16 -15 0 -11 -12 -15 -49 -15 -41 0 -53 -4
-69 -25 -23 -29 -42 -33 -42 -9 0 14 -3 14 -15 4 -8 -7 -15 -18 -15 -25 0 -25
-36 -45 -84 -45 -39 0 -56 -6 -87 -31 -29 -23 -39 -27 -39 -15 0 21 -20 20
-36 -1 -10 -13 -13 -14 -14 -4 0 11 -3 11 -15 1 -12 -10 -15 -10 -15 4 0 10
-9 16 -25 16 -22 0 -25 -4 -25 -40 0 -31 4 -40 18 -40 15 -1 15 -2 -2 -15 -26
-20 -46 -19 -46 1 0 9 -3 14 -7 12 -5 -2 -21 -10 -38 -18 -16 -8 -33 -19 -37
-24 -4 -6 -12 2 -19 17 -7 15 -15 27 -18 27 -4 0 -15 -17 -26 -37 -15 -27 -17
-37 -7 -41 13 -4 17 -32 5 -32 -9 0 -33 49 -33 67 0 7 -4 13 -10 13 -5 0 -10
-9 -10 -21 0 -11 -4 -17 -10 -14 -5 3 -10 1 -10 -4 0 -6 -7 -11 -15 -11 -8 0
-14 -5 -13 -12 4 -15 -65 -30 -74 -15 -4 7 -12 6 -24 -4 -9 -8 -19 -13 -21
-11 -1 1 -3 0 -3 -3 0 -3 3 -5 6 -4 8 1 24 -22 24 -34 0 -4 -12 -13 -27 -20
-16 -6 -31 -16 -34 -20 -4 -5 -10 -4 -13 2 -4 6 -3 11 3 11 6 0 8 7 5 15 -12
30 -40 16 -53 -25 -11 -38 -14 -40 -51 -40 -22 0 -40 -5 -40 -11 0 -6 -7 -3
-16 6 -9 9 -23 14 -31 11 -8 -3 -19 -6 -24 -6 -5 0 -8 -12 -7 -27 1 -16 -2
-37 -6 -49 -9 -30 -77 -101 -100 -105 -32 -6 -20 -23 23 -36 38 -11 73 -15
256 -27 33 -3 71 -5 85 -7 14 -1 47 -8 74 -15 36 -10 52 -11 57 -3 4 8 8 8 13
0 4 -5 19 -10 34 -10 51 1 96 -7 99 -16 2 -6 23 -9 48 -7 39 4 45 2 45 -16 0
-19 -34 -40 -76 -46 -9 -2 -21 -11 -24 -22 -6 -17 -8 -17 -19 5 -16 30 -36 13
-27 -23 7 -30 40 -36 50 -9 5 11 10 14 14 6 4 -6 25 -13 47 -16 122 -16 192
-30 205 -42 9 -8 25 -12 38 -8 18 4 21 2 16 -11 -7 -19 12 -22 20 -3 3 6 4 3
3 -8 -2 -15 -9 -19 -29 -17 -15 1 -29 -2 -33 -8 -3 -5 -24 -10 -46 -10 -33 0
-40 -3 -37 -17 3 -18 32 -25 163 -42 l60 -7 -85 -8 c-181 -15 -999 -6 -1255
14 -151 12 -293 14 -715 10 -201 -1 -334 2 -390 10 -53 7 -219 12 -442 13
-197 0 -358 1 -358 3 0 9 125 34 245 49 77 10 142 19 143 21 2 1 -4 14 -15 28
-13 18 -27 25 -50 26 -33 0 -81 35 -68 48 11 11 179 4 183 -8 6 -17 82 -13 82
5 0 9 9 15 25 15 14 0 24 -5 23 -12 -3 -12 26 -12 215 -4 55 2 25 21 -38 24
-69 3 -91 21 -27 23 73 3 91 5 98 12 4 4 2 7 -5 7 -21 0 0 21 35 36 19 8 34
21 34 29 0 9 9 15 21 15 18 0 19 2 5 15 -8 8 -22 12 -30 9 -19 -7 -22 12 -4
20 7 3 3 4 -8 3 -13 -1 -43 16 -75 43 -29 25 -67 54 -84 66 -17 11 -43 31 -59
45 -15 13 -36 24 -46 24 -11 0 -19 3 -17 7 4 14 -41 38 -59 31 -13 -5 -16 -3
-11 10 4 11 1 17 -6 17 -7 0 -23 9 -35 20 -26 25 -33 25 -26 3 4 -14 3 -13 -7
2 -19 30 -52 55 -66 50 -7 -2 -13 2 -13 9 0 8 -6 16 -12 19 -7 2 -10 7 -7 11
4 4 31 -8 60 -27 30 -19 86 -51 124 -72 39 -21 86 -50 105 -65 19 -15 45 -32
57 -39 12 -6 55 -35 95 -64 130 -93 261 -151 398 -176 212 -39 516 -10 676 63
50 23 164 103 229 161 17 14 46 40 65 57 19 17 50 45 69 62 31 29 33 30 26 7
-6 -20 -2 -18 29 14 39 40 41 61 4 29 -21 -17 -21 -16 1 9 18 20 27 24 32 15
6 -9 20 -1 51 28 24 23 58 54 77 70 19 16 39 34 45 39 6 6 27 23 46 39 134
109 332 305 420 416 134 167 202 317 272 595 23 89 23 98 21 652 -2 598 -7
676 -50 803 -54 160 -65 174 -487 598 -519 522 -613 615 -634 626 -9 5 1 -8
22 -28 21 -20 36 -39 32 -43 -8 -8 -87 67 -81 77 3 4 -3 7 -12 6 -9 0 -22 9
-28 21 -7 13 -14 20 -18 17 -3 -3 -17 5 -31 19 -14 14 -36 29 -48 33 -13 3
-26 11 -29 16 -9 15 -105 45 -180 58 -95 15 -664 3 -749 -17 -153 -36 -255
-113 -625 -472 -77 -75 -210 -201 -295 -281 -411 -384 -514 -517 -590 -755
-44 -135 -49 -219 -52 -855 -2 -333 -6 -582 -10 -555 -3 28 -7 84 -7 125 -1
52 -4 70 -11 60 -8 -12 -10 -8 -12 15 -1 17 -5 -10 -8 -60 l-6 -90 -2 113 c-1
64 -6 112 -12 112 -5 0 -16 -12 -24 -27 l-15 -28 -2 25 c-1 14 -1 33 0 42 1 9
-7 23 -18 30 -12 7 -21 18 -21 25 0 20 -20 15 -21 -4 0 -10 -6 -2 -13 17 -8
22 -19 34 -30 34 -11 -1 -16 6 -16 22 0 19 -5 24 -23 24 -29 0 -57 29 -57 58
0 12 -4 22 -9 22 -5 0 -12 22 -16 49 -4 28 -13 55 -21 62 -11 9 -14 9 -14 0 0
-7 -4 -9 -10 -6 -5 3 -10 24 -10 46 0 62 -20 45 -22 -18 l-2 -58 -3 52 c-3 43
-9 56 -31 74 -27 21 -27 21 -26 147 1 72 -3 130 -8 133 -6 4 -5 14 3 27 10 16
16 18 27 10 10 -9 19 -5 38 17 13 15 24 38 24 51 0 13 5 26 10 29 17 10 11 25
-9 25 -16 0 -21 -8 -24 -42 l-4 -43 -1 43 c-1 31 4 52 18 70 21 26 21 26 27 4
10 -40 25 -11 19 38 -6 43 -4 48 19 58 32 15 32 32 0 32 -28 0 -32 12 -11 29
10 8 15 9 18 1 2 -6 14 3 26 19 18 25 19 31 7 31 -9 0 -15 9 -15 25 0 18 5 25
20 25 11 0 20 -4 20 -10 0 -5 9 -10 20 -10 15 0 20 7 20 25 0 14 -4 25 -10 25
-5 0 -10 7 -10 15 0 8 5 15 10 15 6 0 10 11 10 25 0 17 -6 25 -17 25 -15 0
-13 4 7 20 16 12 27 15 31 8 8 -13 13 -4 30 55 13 47 23 58 32 35 6 -19 47 20
47 46 1 26 28 87 29 65 1 -9 8 -23 17 -30 14 -11 18 -10 30 6 8 10 14 29 14
42 0 28 47 73 77 73 18 0 23 6 23 25 0 14 5 25 11 25 7 0 18 8 26 18 14 16 14
16 9 0 -4 -13 0 -18 14 -18 16 0 20 7 20 35 0 19 5 36 10 36 47 6 71 21 69 42
-3 44 1 56 16 51 8 -4 12 -10 9 -15 -13 -22 17 -6 35 19 12 15 25 32 30 38 6
7 8 15 5 18 -2 3 -1 4 3 1 7 -6 43 24 43 37 0 4 -7 8 -15 8 -8 0 -15 5 -15 11
0 5 5 7 10 4 6 -3 10 1 10 10 0 8 7 18 15 21 8 4 15 12 15 20 0 21 18 17 25
-7 5 -16 10 -18 21 -8 19 16 18 29 -3 30 -12 0 -8 4 10 11 39 14 33 28 -12 28
-75 0 -53 24 31 35 20 3 29 -1 33 -16 5 -16 10 -18 21 -8 8 6 14 20 14 29 0
38 11 50 32 39 25 -14 49 4 30 23 -9 9 -6 14 11 23 12 6 23 17 23 25 1 8 2 23
3 33 0 10 7 17 14 14 6 -2 11 -11 9 -18 -1 -9 3 -8 11 4 8 9 20 17 27 17 7 0
10 7 6 16 -4 10 -2 13 6 8 8 -5 9 -2 5 9 -4 12 -1 17 11 19 9 0 22 2 27 3 6 2
18 3 28 4 35 2 15 21 -23 21 -22 0 -40 4 -40 9 0 12 39 26 63 22 12 -2 17 5
17 23 0 20 5 26 23 26 12 0 31 7 41 15 11 8 27 13 36 10 10 -3 26 6 40 20 20
21 22 28 10 35 -12 7 -12 13 -1 37 l13 28 18 -23 c17 -20 22 -21 39 -10 12 7
21 21 21 30 0 12 8 18 24 18 13 0 29 7 36 15 9 11 15 12 20 5 5 -8 18 -6 44 7
32 16 36 21 32 48 -3 17 -2 24 1 17 4 -10 9 -9 19 5 13 17 15 17 27 1 12 -15
14 -15 24 1 9 14 8 25 -2 44 -9 18 -10 29 -3 33 6 4 13 2 17 -4 9 -14 120 -20
114 -6 -5 13 23 44 39 44 6 0 9 3 6 6 -4 3 -16 0 -28 -6 -19 -10 -20 -10 -8 9
10 17 19 19 61 14 43 -5 49 -4 54 16 6 22 7 23 97 26 43 1 61 6 68 18 5 9 20
17 33 17 13 0 30 6 37 14 9 9 58 15 153 20 77 5 144 10 148 13 5 3 44 7 87 8
44 2 88 6 100 10 11 4 20 2 20 -4 0 -6 9 -11 20 -11 11 0 20 5 20 10 0 10 57
11 75 1 6 -3 35 -4 66 -2 50 2 58 0 77 -23 22 -29 42 -34 42 -11 0 29 77 19
121 -16 29 -23 39 -27 39 -15 0 10 9 16 25 16 14 0 25 5 25 10 0 6 7 10 15 10
8 0 15 -4 15 -10 0 -5 12 -10 26 -10 19 0 25 4 20 15 -6 17 2 19 24 5 12 -8
13 -11 1 -19 -8 -5 -11 -16 -6 -30 5 -18 14 -21 54 -21 31 0 53 -5 61 -15 7
-8 23 -15 36 -15 19 0 24 -5 24 -25 l0 -25 120 0 c73 0 120 -4 120 -10 0 -5
18 -10 40 -10 22 0 40 -4 40 -10 0 -6 33 -9 83 -8 45 1 63 3 40 5 -29 3 -43 9
-43 19 0 11 18 14 85 14 69 0 85 -3 85 -15 0 -8 5 -15 10 -15 6 0 10 -18 10
-40 0 -33 3 -40 20 -40 17 0 20 7 21 43 1 23 3 34 6 25 4 -16 19 -18 124 -18
95 0 119 3 119 14 0 10 22 16 80 21 44 4 80 11 80 16 0 5 105 9 240 9 207 0
240 -2 240 -15 0 -9 -9 -15 -25 -15 -30 0 -32 -11 -7 -33 21 -19 132 -24 132
-7 0 6 14 10 30 10 20 0 30 5 30 15 0 9 -9 15 -25 15 -14 0 -25 3 -25 8 0 12
38 41 44 35 3 -4 6 10 6 31 l0 37 63 -2 c92 -2 97 -1 97 21 0 12 5 26 10 33 6
7 17 21 24 32 14 19 15 19 35 1 14 -13 19 -26 15 -42 -6 -22 -3 -24 35 -24 30
0 41 4 41 15 0 8 -7 15 -15 15 -18 0 -18 7 -4 49 10 28 15 31 55 31 40 0 44
-2 44 -25 0 -22 4 -25 40 -25 36 0 40 3 40 25 0 23 4 25 40 25 30 0 40 -4 40
-16 0 -12 9 -14 43 -12 l42 3 -3 38 -4 37 71 0 c56 0 71 3 71 15 0 10 -10 15
-30 15 -20 0 -30 5 -30 15 0 11 11 15 40 15 36 0 40 3 40 25 0 23 4 25 40 25
22 0 40 -4 40 -10 0 -5 18 -10 40 -10 22 0 40 5 40 10 0 6 -18 10 -40 10 -36
0 -40 3 -40 25 0 23 4 25 40 25 29 0 40 4 40 15 0 11 -11 15 -40 15 -29 0 -40
4 -40 15 0 12 16 15 85 15 81 0 86 1 97 25 6 14 14 25 18 25 4 0 12 -11 18
-25 6 -14 18 -25 25 -25 18 0 44 30 49 55 3 17 12 21 56 23 28 2 52 7 52 13 0
5 18 9 40 9 29 0 40 4 40 15 0 11 -11 15 -40 15 -22 0 -40 -4 -40 -10 0 -5
-18 -10 -40 -10 -22 0 -40 5 -40 10 0 6 -8 10 -17 10 -38 1 20 30 59 30 35 0
38 2 38 28 l1 27 15 -27 c8 -16 19 -28 24 -28 13 0 40 54 40 80 0 27 14 25 38
-5 11 -14 25 -25 31 -25 6 0 11 -7 11 -15 0 -11 11 -15 40 -15 29 0 40 4 40
15 0 9 -9 15 -25 15 -26 0 -33 14 -13 26 6 4 34 6 61 5 31 -1 53 3 58 11 5 8
12 3 20 -15 7 -15 16 -27 20 -27 4 0 15 25 24 55 17 54 18 55 56 55 22 0 39 5
39 10 0 6 18 10 40 10 29 0 40 4 40 15 0 11 11 15 40 15 30 0 40 -4 40 -16 0
-14 10 -15 77 -9 43 4 84 12 90 17 7 6 26 8 42 6 21 -3 28 -1 24 9 -3 7 -9 13
-14 13 -5 0 -9 14 -9 30 0 30 1 30 55 30 l55 0 0 40 0 40 40 0 40 0 0 120 0
120 -5120 0 -5120 0 0 -3840z m10056 3603 c-11 -11 -17 4 -9 23 7 18 8 18 11
1 2 -10 1 -21 -2 -24z m-136 -68 c0 -11 -11 -15 -40 -15 -29 0 -40 4 -40 15 0
11 11 15 40 15 29 0 40 -4 40 -15z m110 -41 c0 -36 -22 -54 -69 -54 -37 0 -41
2 -41 25 0 23 4 25 40 25 29 0 40 4 40 15 0 8 7 15 15 15 9 0 15 -10 15 -26z
m-965 -299 c0 -10 -6 -20 -12 -22 -7 -3 -13 2 -13 11 0 12 -11 16 -42 18 l-43
1 45 7 c58 9 65 7 65 -15z m-185 -60 c0 -8 -7 -15 -16 -15 -14 0 -14 3 -4 15
7 8 14 15 16 15 2 0 4 -7 4 -15z m-160 -110 c0 -8 -4 -15 -10 -15 -5 0 -10 7
-10 15 0 8 5 15 10 15 6 0 10 -7 10 -15z m-3176 -214 c3 -5 -3 -11 -13 -14
-14 -3 -18 -1 -14 9 6 16 19 18 27 5z m-664 -101 c0 -5 -4 -10 -9 -10 -6 0
-13 5 -16 10 -3 6 1 10 9 10 9 0 16 -4 16 -10z m1263 -27 c-13 -2 -33 -2 -45
0 -13 2 -3 4 22 4 25 0 35 -2 23 -4z m1137 -73 c0 -5 -18 -10 -40 -10 -22 0
-40 5 -40 10 0 6 18 10 40 10 22 0 40 -4 40 -10z m-240 -10 c0 -5 18 -10 40
-10 29 0 40 -4 40 -15 0 -11 -11 -15 -40 -15 -22 0 -40 5 -40 10 0 6 -18 10
-40 10 -29 0 -40 4 -40 15 0 11 11 15 40 15 22 0 40 -4 40 -10z m-184 -37
c-11 -11 -17 4 -9 23 7 18 8 18 11 1 2 -10 1 -21 -2 -24z m-2271 17 c-3 -5
-11 -10 -16 -10 -6 0 -7 5 -4 10 3 6 11 10 16 10 6 0 7 -4 4 -10z m-145 -29
c0 -6 -4 -13 -10 -16 -5 -3 -10 1 -10 9 0 9 5 16 10 16 6 0 10 -4 10 -9z m-91
-60 c21 -21 18 -31 -11 -31 -13 0 -18 7 -18 25 0 30 4 31 29 6z m1223 -145
c103 -49 167 -107 667 -602 462 -456 536 -537 581 -628 31 -64 51 -156 33
-156 -6 0 -13 21 -17 48 -9 70 -46 140 -117 223 -107 125 -921 934 -1032 1026
-45 38 -134 84 -189 99 -37 10 -125 14 -293 16 -218 2 -228 3 -110 9 72 3 191
5 265 4 134 -2 137 -3 212 -39z m-934 -8 c-23 -17 -132 -120 -242 -228 -111
-108 -266 -259 -346 -336 -205 -196 -512 -503 -539 -539 l-23 -30 17 30 c10
17 24 39 31 50 14 19 333 342 496 501 49 47 88 89 88 94 0 5 9 11 20 15 11 3
19 10 17 14 -1 4 18 25 43 46 25 21 44 42 42 46 -1 5 5 9 13 9 9 0 20 12 26
26 5 15 12 24 16 20 9 -8 34 14 27 25 -3 5 1 9 8 9 8 0 21 8 29 18 45 49 170
162 179 162 6 0 8 5 5 10 -3 6 4 14 17 19 13 6 41 25 63 44 22 19 44 33 48 30
4 -2 -11 -18 -35 -35z m315 35 c-7 -2 -19 -2 -25 0 -7 3 -2 5 12 5 14 0 19 -2
13 -5z m-122 -14 c-61 -10 -151 -55 -197 -99 -18 -16 -34 -26 -37 -24 -6 6 39
47 88 81 43 29 113 52 160 51 38 0 37 -1 -14 -9z m556 -95 c-3 -3 -12 -4 -19
-1 -8 3 -5 6 6 6 11 1 17 -2 13 -5z m60 0 c-3 -3 -12 -4 -19 -1 -8 3 -5 6 6 6
11 1 17 -2 13 -5z m599 -126 c60 -61 125 -128 144 -148 170 -178 163 -174 -33
20 -199 197 -239 240 -223 240 1 0 52 -50 112 -112z m-1512 18 c-55 -59 -113
-106 -68 -55 60 69 110 119 118 119 5 0 -17 -29 -50 -64z m1142 33 c19 -22 19
-22 -3 -8 -13 8 -23 17 -23 21 0 12 6 9 26 -13z m-171 -80 c17 -7 48 -25 70
-40 38 -26 314 -299 408 -404 84 -95 99 -110 92 -98 -4 9 -1 11 9 7 9 -3 16
-10 16 -15 0 -5 20 -28 43 -51 24 -24 64 -68 88 -98 87 -107 93 -125 58 -196
-23 -48 -83 -85 -135 -83 l-29 1 30 8 c114 29 159 94 120 171 -10 18 -81 96
-159 174 -124 123 -193 195 -453 471 -58 61 -149 124 -180 124 -9 0 6 -11 34
-25 58 -29 114 -82 313 -295 80 -85 203 -213 273 -284 151 -150 180 -204 146
-268 -28 -53 -169 -66 -295 -27 -142 44 -243 107 -414 259 -258 229 -344 270
-576 270 -149 0 -217 -21 -316 -97 -232 -179 -696 -619 -741 -702 -45 -83 -56
-150 -63 -401 -9 -338 11 -469 92 -608 37 -62 119 -142 187 -181 62 -36 189
-71 254 -71 61 0 188 27 242 53 68 31 151 90 193 136 21 23 40 41 44 41 4 0
-1 -9 -11 -20 -10 -11 -14 -20 -9 -19 10 0 86 93 129 159 16 25 32 47 35 50 3
3 11 16 18 29 8 13 23 39 33 58 18 33 28 46 57 78 18 20 15 27 -8 15 -17 -9
-90 -111 -90 -126 0 -9 -99 -152 -111 -159 -6 -4 13 30 42 76 28 46 64 106 79
132 46 84 75 107 129 107 66 0 136 -24 229 -78 31 -17 40 -27 31 -33 -8 -5 -2
-7 18 -7 17 1 41 -6 54 -16 16 -11 18 -16 8 -16 -8 0 -20 5 -26 11 -6 6 -16
10 -22 8 -6 -2 87 -60 205 -129 l216 -125 -119 -6 c-65 -4 -187 -7 -271 -8
-176 -1 -278 -14 -342 -44 -47 -22 -186 -155 -383 -369 -168 -183 -264 -246
-387 -255 -115 -9 -270 49 -445 166 -130 87 -193 172 -215 290 -6 32 -10 266
-10 580 0 573 2 597 56 683 82 130 494 561 894 934 130 120 153 139 188 155
31 13 31 14 10 19 -20 5 -15 10 32 33 30 14 86 34 124 42 144 33 450 42 511
14z m376 -96 l24 -28 -30 25 c-16 14 -32 26 -34 28 -2 1 0 2 6 2 5 0 20 -12
34 -27z m-1461 13 c0 -2 -7 -7 -16 -10 -8 -3 -12 -2 -9 4 6 10 25 14 25 6z
m-35 -36 c-3 -5 -11 -10 -16 -10 -6 0 -7 5 -4 10 3 6 11 10 16 10 6 0 7 -4 4
-10z m1565 -42 c0 -5 4 -8 9 -8 10 0 100 -81 269 -245 172 -166 182 -176 182
-182 0 -7 -27 14 -67 53 -17 17 -76 71 -129 120 -54 49 -114 105 -134 124 -20
19 -63 60 -95 90 -67 61 -90 90 -56 68 12 -7 21 -16 21 -20z m-1605 3 c-3 -6
-11 -11 -17 -11 -6 0 -6 6 2 15 14 17 26 13 15 -4z m-40 -31 c-3 -5 -11 -10
-16 -10 -6 0 -7 5 -4 10 3 6 11 10 16 10 6 0 7 -4 4 -10z m-46 -37 c-26 -34
-39 -45 -39 -34 0 12 36 51 46 51 4 0 0 -8 -7 -17z m814 -294 c69 -10 237 -80
237 -99 0 -4 -32 9 -72 28 -91 45 -167 61 -293 63 -68 1 -90 4 -70 9 45 11
118 11 198 -1z m-293 -43 c0 -2 -7 -7 -16 -10 -8 -3 -12 -2 -9 4 6 10 25 14
25 6z m-60 -41 c-13 -14 -26 -23 -28 -20 -4 4 38 44 47 45 3 0 -6 -11 -19 -25z
m-1420 11 c0 -3 -4 -8 -10 -11 -5 -3 -10 -1 -10 4 0 6 5 11 10 11 6 0 10 -2
10 -4z m3141 -33 c13 -16 12 -17 -3 -4 -10 7 -18 15 -18 17 0 8 8 3 21 -13z
m-1101 -13 c0 -5 -2 -10 -4 -10 -3 0 -8 5 -11 10 -3 6 -1 10 4 10 6 0 11 -4
11 -10z m-718 -50 c-28 -22 -52 -44 -54 -48 -6 -13 -109 -94 -114 -89 -2 2 17
22 43 43 68 55 103 86 127 111 12 12 27 22 35 22 7 1 -9 -17 -37 -39z m464 31
c58 -12 154 -52 136 -59 -7 -2 -27 5 -46 16 -45 26 -157 46 -239 40 -36 -2
-63 0 -61 4 7 11 151 10 210 -1z m-239 -17 c-3 -3 -12 -4 -19 -1 -8 3 -5 6 6
6 11 1 17 -2 13 -5z m-117 -64 c0 -5 -4 -10 -10 -10 -5 0 -10 5 -10 10 0 6 5
10 10 10 6 0 10 -4 10 -10z m575 -35 c28 -24 45 -44 40 -45 -6 0 -22 11 -36
24 -14 13 -35 29 -47 35 -21 11 -30 31 -14 31 4 0 30 -20 57 -45z m-650 -25
c-3 -5 -11 -10 -16 -10 -6 0 -7 5 -4 10 3 6 11 10 16 10 6 0 7 -4 4 -10z m720
-40 c3 -5 2 -10 -4 -10 -5 0 -13 5 -16 10 -3 6 -2 10 4 10 5 0 13 -4 16 -10z
m-978 -40 c-19 -16 -38 -30 -43 -30 -10 0 58 59 69 60 4 0 -8 -13 -26 -30z
m1039 -5 c15 -13 25 -27 21 -31 -4 -4 -7 -2 -7 5 0 7 -4 10 -9 7 -4 -3 -19 6
-31 19 -30 32 -12 32 26 0z m-345 -18 c30 -14 68 -39 85 -54 334 -305 400
-340 723 -379 69 -8 139 -21 156 -28 42 -18 99 -69 126 -113 28 -46 31 -132 5
-185 -18 -38 -62 -88 -77 -88 -5 0 7 16 25 35 44 45 60 94 52 158 -8 68 -45
114 -126 155 -57 28 -80 33 -191 42 -175 14 -301 50 -391 110 -23 16 -47 30
-53 30 -14 0 39 -36 100 -67 84 -44 150 -61 308 -83 84 -12 161 -25 172 -30
11 -4 35 -14 53 -20 48 -18 100 -84 108 -136 13 -86 -51 -186 -126 -199 -22
-4 -38 -10 -35 -15 3 -4 -14 -4 -37 2 -48 10 -61 18 -32 18 10 0 -10 13 -46
29 -65 28 -158 76 -280 145 -122 69 -285 144 -338 155 -66 14 -202 14 -271 1
-182 -34 -349 -213 -455 -487 -44 -114 -107 -150 -158 -91 -16 18 -18 44 -18
217 0 316 7 337 164 500 l91 94 -77 -62 c-42 -35 -95 -86 -117 -115 -71 -92
-75 -110 -75 -384 l-1 -244 28 -24 c15 -13 39 -24 53 -24 13 0 24 -5 24 -11 0
-23 -65 0 -92 33 -37 43 -42 86 -36 330 6 198 7 211 32 261 14 29 34 62 45 74
12 13 18 29 14 42 -3 13 -1 21 7 21 7 0 10 -7 6 -16 -3 -9 29 15 72 53 43 37
107 93 142 123 36 30 85 73 110 95 63 57 98 77 155 90 42 10 59 9 109 -6 73
-22 207 -113 319 -216 21 -19 41 -32 44 -29 4 3 4 7 2 9 -21 14 -111 88 -136
112 -55 52 -94 79 -177 124 -94 51 -171 42 -281 -33 -36 -24 -246 -210 -317
-280 -16 -16 -32 -25 -36 -21 -8 7 224 237 303 300 28 22 52 43 55 46 7 8 68
41 105 56 45 19 125 10 186 -20z m-541 9 c0 -3 -4 -8 -10 -11 -5 -3 -10 -1
-10 4 0 6 5 11 10 11 6 0 10 -2 10 -4z m1325 -28 c27 -11 88 -28 135 -38 l85
-19 -65 5 c-71 7 -143 29 -205 63 -42 23 -32 21 50 -11z m-2385 8 c0 -2 -8
-10 -17 -17 -16 -13 -17 -12 -4 4 13 16 21 21 21 13z m850 -10 c0 -2 -8 -10
-17 -17 -16 -13 -17 -12 -4 4 13 16 21 21 21 13z m1180 -38 c0 -5 -2 -8 -3 -8
-7 0 -47 38 -47 44 0 9 49 -27 50 -36z m-1045 2 c-3 -5 -11 -10 -16 -10 -6 0
-7 5 -4 10 3 6 11 10 16 10 6 0 7 -4 4 -10z m-116 -113 c-182 -172 -218 -274
-221 -627 -1 -147 -3 -187 -8 -140 -4 36 -6 146 -3 245 6 206 22 283 80 375
40 63 180 207 203 209 8 0 -15 -27 -51 -62z m-1439 18 c0 -9 -9 -15 -25 -15
-24 0 -32 10 -18 23 12 13 43 7 43 -8z m2998 -62 c-10 -2 -26 -2 -35 0 -10 3
-2 5 17 5 19 0 27 -2 18 -5z m236 -34 c81 -24 163 -82 206 -146 17 -24 30 -47
30 -52 0 -4 9 -27 21 -50 11 -24 18 -50 15 -58 -4 -9 -1 -22 5 -29 10 -13 15
-101 6 -110 -3 -3 -8 19 -12 48 -10 82 -23 128 -53 187 -41 80 -174 194 -205
174 -5 -3 -7 -1 -3 5 9 15 -10 24 -53 28 -41 3 -142 22 -149 28 -10 11 131 -8
192 -25z m843 -46 c-3 -10 -5 -2 -5 17 0 19 2 27 5 18 2 -10 2 -26 0 -35z
m-140 -100 c-2 -21 -4 -4 -4 37 0 41 2 58 4 38 2 -21 2 -55 0 -75z m-3510 35
c-3 -7 -5 -2 -5 12 0 14 2 19 5 13 2 -7 2 -19 0 -25z m696 -3 c-3 -9 -8 -14
-10 -11 -3 3 -2 9 2 15 9 16 15 13 8 -4z m-706 -52 c-3 -10 -5 -4 -5 12 0 17
2 24 5 18 2 -7 2 -21 0 -30z m1870 -109 c-3 -3 -12 -4 -19 -1 -8 3 -5 6 6 6
11 1 17 -2 13 -5z m56 -11 c-7 -2 -19 -2 -25 0 -7 3 -2 5 12 5 14 0 19 -2 13
-5z m1131 -28 c5 -22 4 -26 -4 -15 -5 8 -10 24 -10 34 0 26 6 18 14 -19z
m-931 -47 c70 -34 127 -65 127 -69 0 -5 -54 19 -120 51 -66 33 -126 60 -132
60 -7 1 -24 8 -38 16 l-25 15 30 -6 c17 -4 87 -34 158 -67z m-568 27 c-49 -30
-149 -128 -176 -172 -12 -18 -22 -33 -25 -33 -5 0 9 33 20 48 6 7 29 34 51 60
38 46 138 122 160 122 6 -1 -8 -12 -30 -25z m324 -61 c2 -2 -27 -3 -65 -3 -55
1 -62 3 -34 9 32 6 89 2 99 -6z m1188 -6 c-3 -8 -6 -5 -6 6 -1 11 2 17 5 13 3
-3 4 -12 1 -19z m-1394 -34 c-82 -41 -163 -117 -200 -187 -8 -16 -17 -26 -20
-24 -10 11 70 119 122 164 28 25 72 54 96 63 76 31 77 21 2 -16z m272 26 c8
-13 -5 -13 -25 0 -13 8 -13 10 2 10 9 0 20 -4 23 -10z m65 -20 c13 -9 13 -10
0 -10 -8 0 -22 5 -30 10 -13 9 -13 10 0 10 8 0 22 -5 30 -10z m-71 -18 c3 -5
22 -14 41 -22 19 -7 40 -17 45 -22 6 -5 -15 1 -45 13 -79 33 -217 33 -278 0
-95 -50 -154 -121 -248 -301 -27 -52 -52 -97 -55 -100 -3 -3 -20 -27 -39 -55
-36 -55 -90 -115 -102 -115 -4 0 9 18 31 41 40 43 99 135 164 259 126 237 238
324 406 314 41 -2 77 -8 80 -12z m454 -61 c42 -23 77 -45 77 -48 0 -2 -33 13
-72 35 -122 67 -138 77 -138 85 0 5 12 0 28 -11 15 -10 62 -38 105 -61z m-243
21 c41 -19 154 -81 251 -138 97 -57 187 -108 200 -113 13 -5 18 -10 11 -10
-15 -1 -114 49 -197 99 -89 55 -168 98 -285 157 -114 59 -101 62 20 5z m-37
-43 c34 -17 64 -34 67 -38 6 -7 23 -17 98 -56 29 -15 55 -31 58 -36 9 -15 -6
-10 -44 16 -20 14 -40 25 -45 25 -4 0 -36 18 -71 40 -35 22 -67 40 -72 40 -5
0 -22 9 -39 20 -44 29 -23 24 48 -11z m958 -36 c-8 -15 -10 -15 -11 -2 0 17
10 32 18 25 2 -3 -1 -13 -7 -23z m-535 -13 c21 -10 33 -19 26 -20 -14 0 -72
28 -72 35 0 8 4 6 46 -15z m-738 -77 c-10 -2 -26 -2 -35 0 -10 3 -2 5 17 5 19
0 27 -2 18 -5z m118 -9 c27 -9 56 -23 64 -31 13 -14 12 -14 -9 -3 -13 7 -47
20 -75 30 -64 23 -47 26 20 4z m-473 -9 c-3 -9 -8 -14 -10 -11 -3 3 -2 9 2 15
9 16 15 13 8 -4z m1587 11 c0 -3 -4 -8 -10 -11 -5 -3 -10 -1 -10 4 0 6 5 11
10 11 6 0 10 -2 10 -4z m-605 -53 c11 -7 16 -13 12 -13 -11 0 -87 49 -87 56 0
6 24 -8 75 -43z m505 33 c0 -2 -7 -7 -16 -10 -8 -3 -12 -2 -9 4 6 10 25 14 25
6z m70 -19 c0 -8 -7 -14 -15 -14 -11 0 -12 4 -4 14 6 7 13 13 15 13 2 0 4 -6
4 -13z m-1592 -37 c-5 -17 -14 -33 -19 -36 -8 -5 4 37 17 57 11 19 12 8 2 -21z
m613 13 c13 -16 12 -17 -3 -4 -10 7 -18 15 -18 17 0 8 8 3 21 -13z m926 -28
c-15 -14 -33 -25 -38 -25 -6 0 3 11 18 25 15 13 33 24 38 24 6 0 -3 -11 -18
-24z m-437 -21 c0 -2 -9 0 -20 6 -11 6 -20 13 -20 16 0 2 9 0 20 -6 11 -6 20
-13 20 -16z m155 16 c3 -5 2 -10 -4 -10 -5 0 -13 5 -16 10 -3 6 -2 10 4 10 5
0 13 -4 16 -10z m-3186 -62 c0 -13 -4 -32 -9 -43 -7 -15 -9 -10 -9 23 -1 23 4
42 9 42 6 0 10 -10 9 -22z m1876 -25 c-33 -50 -67 -98 -63 -88 9 27 64 115 72
115 4 0 0 -12 -9 -27z m1458 20 c-7 -2 -19 -2 -25 0 -7 3 -2 5 12 5 14 0 19
-2 13 -5z m-1623 -38 c-13 -14 -27 -25 -32 -25 -4 0 2 11 14 25 12 14 26 25
32 25 5 0 -1 -11 -14 -25z m1215 -115 c33 -18 87 -43 120 -56 68 -26 63 -31
-11 -9 -47 14 -288 144 -309 167 -9 10 56 -23 200 -102z m-865 -70 c-6 -11
-13 -20 -16 -20 -2 0 0 9 6 20 6 11 13 20 16 20 2 0 0 -9 -6 -20z m-60 -24 c0
-2 -8 -10 -17 -17 -16 -13 -17 -12 -4 4 13 16 21 21 21 13z m1565 -63 c61 -43
78 -102 79 -278 1 -110 -3 -153 -17 -200 -35 -112 -122 -217 -297 -355 -24
-19 -58 -47 -75 -61 -34 -30 -142 -116 -340 -274 -76 -60 -177 -142 -224 -180
-47 -39 -93 -74 -101 -79 -26 -13 92 92 166 149 39 29 102 79 140 110 38 31
87 70 109 88 22 18 64 54 95 80 72 63 84 72 90 72 5 0 28 18 94 75 22 19 45
38 51 42 43 30 176 158 203 196 43 60 72 120 72 148 0 13 5 26 11 30 8 5 10
49 5 153 -3 80 -7 155 -9 166 -5 28 -39 97 -45 91 -3 -3 0 -11 5 -18 32 -43
49 -208 32 -313 -16 -99 -56 -209 -87 -237 l-26 -23 19 30 c56 89 77 171 68
275 -6 75 -12 100 -23 100 -14 0 -13 -47 1 -52 9 -3 9 -27 0 -93 -7 -50 -14
-100 -15 -112 -3 -26 -16 -44 -16 -22 0 8 -3 25 -7 38 -3 14 -2 22 3 18 5 -3
9 12 7 34 -1 21 2 39 6 39 13 0 1 99 -20 170 -23 79 -73 136 -144 165 -42 18
-52 32 -22 32 40 1 48 3 43 12 -9 14 13 18 74 15 40 -2 65 -10 95 -31z m-143
-134 c15 -24 30 -60 33 -79 5 -32 4 -31 -11 10 -16 44 -48 97 -69 113 -6 5 -4
7 5 4 8 -2 27 -23 42 -48z m-1749 4 c-7 -2 -19 -2 -25 0 -7 3 -2 5 12 5 14 0
19 -2 13 -5z m-110 -10 c-13 -2 -33 -2 -45 0 -13 2 -3 4 22 4 25 0 35 -2 23
-4z m1797 -103 c0 -13 -1 -13 -10 0 -5 8 -10 22 -10 30 0 13 1 13 10 0 5 -8
10 -22 10 -30z m101 -161 c-19 -88 -67 -163 -170 -264 -52 -52 -96 -93 -98
-91 -2 2 41 48 95 102 106 106 141 162 162 257 7 31 15 55 18 53 2 -3 -1 -28
-7 -57z m-1121 27 c0 -3 -4 -8 -10 -11 -5 -3 -10 -1 -10 4 0 6 5 11 10 11 6 0
10 -2 10 -4z m213 -3 c-7 -2 -21 -2 -30 0 -10 3 -4 5 12 5 17 0 24 -2 18 -5z
m-53 -20 c-8 -3 -63 -53 -122 -111 -104 -103 -148 -134 -70 -51 130 142 162
170 192 168 13 0 13 -1 0 -6z m617 0 c29 -3 50 -10 47 -15 -5 -8 -165 -149
-294 -260 -30 -25 -66 -56 -80 -68 -14 -12 -52 -45 -85 -73 -32 -29 -77 -68
-100 -88 -76 -68 -250 -204 -303 -238 -94 -60 -185 -91 -266 -91 -40 0 -76 3
-80 7 -4 4 -13 8 -19 8 -20 2 -119 51 -167 84 -25 17 -55 31 -67 31 -13 0 -23
4 -23 9 0 13 57 34 70 26 6 -4 16 -3 23 3 28 22 42 20 43 -7 1 -14 -1 -20 -3
-13 -3 6 -12 12 -21 12 -26 -1 42 -53 117 -92 59 -30 73 -33 150 -33 79 0 92
4 163 38 43 21 90 49 104 62 15 14 30 25 34 25 4 0 12 11 18 25 14 30 16 46 3
26 -5 -7 -14 -10 -20 -7 -18 11 -13 40 12 61 l22 20 -32 3 c-20 2 -40 13 -52
28 -13 17 -29 24 -52 24 -19 1 -52 8 -74 16 -50 19 -95 23 -95 10 0 -12 -61
-76 -73 -76 -4 0 -5 4 -2 10 3 6 -1 7 -9 4 -9 -3 -14 -11 -13 -17 1 -6 -2 -11
-8 -12 -5 0 -24 -10 -42 -23 -17 -12 -36 -22 -43 -22 -6 0 -8 -5 -5 -11 4 -6
1 -9 -6 -8 -8 1 -22 -1 -32 -6 -37 -16 -24 2 26 35 89 59 245 198 422 375 100
100 186 178 210 189 28 14 73 21 155 26 151 8 381 10 447 3z m-807 -8 c0 -2
-19 -26 -42 -53 -24 -27 -50 -58 -58 -68 -148 -184 -192 -234 -205 -234 -8 0
24 41 69 90 17 19 38 44 46 56 34 47 178 214 186 214 2 0 4 -2 4 -5z m1199
-109 c-9 -8 -10 -7 -5 7 3 10 7 24 7 30 1 7 3 4 6 -7 3 -10 -1 -23 -8 -30z
m-1 -46 c-5 -17 -18 -36 -28 -43 -9 -6 -17 -15 -16 -19 0 -4 -7 -17 -16 -28
-21 -23 -23 -34 -6 -24 7 4 8 3 4 -5 -4 -6 -11 -9 -15 -6 -5 2 -24 -11 -42
-31 -44 -45 -66 -58 -75 -42 -4 6 -3 8 2 5 12 -7 137 117 140 140 2 9 7 19 13
22 5 4 14 19 20 34 15 38 33 35 19 -3z m-613 -137 c-16 -14 -83 -73 -147 -130
-226 -203 -498 -402 -498 -364 0 7 51 35 58 31 2 -1 16 9 30 22 15 13 54 44
87 68 72 52 261 208 365 300 73 65 119 100 130 100 3 0 -8 -12 -25 -27z m3675
1 c0 -2 -7 -4 -15 -4 -8 0 -15 4 -15 10 0 5 7 7 15 4 8 -4 15 -8 15 -10z
m-5800 -236 c47 -30 105 -66 130 -79 25 -13 110 -67 190 -120 80 -53 195 -127
255 -166 61 -38 141 -90 179 -114 39 -24 78 -48 87 -54 10 -5 39 -25 66 -44
103 -73 169 -115 247 -157 45 -24 78 -44 75 -44 -24 0 -240 120 -273 152 -7 7
-51 37 -97 66 -74 47 -382 242 -444 282 -13 8 -56 38 -96 65 -40 28 -80 55
-90 60 -124 73 -170 101 -204 124 -22 15 -53 33 -69 41 -32 16 -196 174 -196
189 0 5 35 -26 78 -69 42 -42 115 -102 162 -132z m2365 122 c-16 -16 -34 -30
-39 -30 -12 1 49 60 61 60 4 0 -6 -13 -22 -30z m-55 -48 c0 -4 -10 -13 -22
-21 -23 -14 -23 -14 -4 8 20 22 26 25 26 13z m2113 -26 c-10 -13 -19 -20 -21
-15 -2 5 -19 9 -38 9 -24 0 -34 5 -34 15 0 12 13 15 55 15 l56 0 -18 -24z
m-496 -118 c-2 -13 -4 -3 -4 22 0 25 2 35 4 23 2 -13 2 -33 0 -45z m743 52 c0
-5 -4 -10 -10 -10 -5 0 -10 5 -10 10 0 6 5 10 10 10 6 0 10 -4 10 -10z m-1750
-34 c0 -2 -8 -10 -17 -17 -16 -13 -17 -12 -4 4 13 16 21 21 21 13z m-1370 -51
c-7 -9 -15 -13 -19 -10 -3 3 1 10 9 15 21 14 24 12 10 -5z m34 -19 c-21 -15
-30 -14 -19 3 3 6 14 11 23 11 13 0 13 -2 -4 -14z m-934 -26 c0 -5 -2 -10 -4
-10 -3 0 -8 5 -11 10 -3 6 -1 10 4 10 6 0 11 -4 11 -10z m2900 -44 c0 -3 -4
-8 -10 -11 -5 -3 -10 -1 -10 4 0 6 5 11 10 11 6 0 10 -2 10 -4z m60 -6 c0 -5
-2 -10 -4 -10 -3 0 -8 5 -11 10 -3 6 -1 10 4 10 6 0 11 -4 11 -10z m-3182
-117 c31 -20 51 -38 45 -40 -14 -5 -53 14 -53 26 0 5 -9 7 -20 4 -11 -3 -20 0
-20 6 0 6 -6 10 -12 9 -7 -2 -12 3 -10 11 2 8 -3 11 -11 8 -13 -5 -57 33 -57
48 0 8 72 -30 138 -72z m1030 35 c-4 -12 -58 -31 -67 -23 -2 3 10 8 27 11 18
4 29 10 26 15 -3 5 0 9 6 9 7 0 10 -5 8 -12z m-101 -39 c-14 -8 -22 -8 -30 0
-8 8 -3 11 19 11 25 -1 27 -2 11 -11z m-60 -5 c-3 -3 -12 -4 -19 -1 -8 3 -5 6
6 6 11 1 17 -2 13 -5z m-762 -64 c3 -6 -4 -10 -17 -10 -17 0 -24 6 -25 20 -2
17 1 18 17 10 10 -6 22 -15 25 -20z m2333 -97 c-10 -2 -28 -2 -40 0 -13 2 -5
4 17 4 22 1 32 -1 23 -4z m-378 -206 c0 -2 -10 -12 -21 -23 -22 -19 -22 -19
-10 4 10 18 31 31 31 19z m2163 -390 c26 -2 50 -6 53 -10 10 -10 -126 -20
-169 -12 -23 5 -94 9 -157 11 -63 1 -128 7 -145 12 -29 10 298 9 418 -1z
m-4500 -44 c-7 -2 -19 -2 -25 0 -7 3 -2 5 12 5 14 0 19 -2 13 -5z m3505 -50
c-21 -2 -55 -2 -75 0 -21 2 -4 4 37 4 41 0 58 -2 38 -4z m109 1 c-3 -3 -12 -4
-19 -1 -8 3 -5 6 6 6 11 1 17 -2 13 -5z m-754 -41 c-7 -2 -21 -2 -30 0 -10 3
-4 5 12 5 17 0 24 -2 18 -5z m162 -3 c-11 -5 -27 -9 -35 -9 -9 0 -8 4 5 9 11
5 27 9 35 9 9 0 8 -4 -5 -9z m142 4 c-3 -3 -12 -4 -19 -1 -8 3 -5 6 6 6 11 1
17 -2 13 -5z m116 -1 c-13 -2 -35 -2 -50 0 -16 2 -5 4 22 4 28 0 40 -2 28 -4z
m583 -5 c7 -11 -446 -9 -471 2 -12 6 73 9 223 8 133 -1 245 -5 248 -10z"/>
<path d="M5048 5903 c6 -2 18 -2 25 0 6 3 1 5 -13 5 -14 0 -19 -2 -12 -5z"/>
<path d="M4968 5893 c7 -3 16 -2 19 1 4 3 -2 6 -13 5 -11 0 -14 -3 -6 -6z"/>
<path d="M5275 4050 c3 -5 14 -10 23 -10 15 0 15 2 2 10 -20 13 -33 13 -25 0z"/>
<path d="M5344 4015 c15 -8 33 -15 40 -15 6 0 -2 7 -18 15 -15 8 -33 15 -40
15 -6 0 2 -7 18 -15z"/>
<path d="M3710 3890 c-1 -41 -4 -127 -6 -191 -2 -64 1 -138 7 -165 6 -27 12
-58 13 -69 4 -37 49 -115 88 -153 51 -50 65 -62 77 -62 5 0 11 -4 13 -8 4 -11
178 -94 233 -113 22 -7 44 -17 49 -21 6 -4 15 -8 20 -8 6 0 4 5 -4 10 -13 9
-13 12 3 24 16 13 16 14 -7 20 -13 3 -31 3 -40 0 -8 -3 -23 -1 -33 5 -15 9
-13 10 10 5 40 -9 35 14 -13 59 -22 21 -40 47 -40 58 0 12 -12 33 -27 46 -20
19 -23 27 -13 33 10 6 6 14 -15 34 -16 15 -25 32 -22 40 4 11 1 13 -10 9 -10
-4 -21 1 -30 13 -7 10 -28 26 -45 34 -17 8 -33 24 -34 35 -3 21 -30 45 -51 45
-7 0 -13 9 -13 21 0 19 -68 98 -71 81 -4 -22 -18 95 -19 163 -3 112 -17 153
-20 55z"/>
<path d="M6253 3663 c9 -2 25 -2 35 0 9 3 1 5 -18 5 -19 0 -27 -2 -17 -5z"/>
<path d="M6330 3666 c0 -2 7 -6 15 -10 8 -3 15 -1 15 4 0 6 -7 10 -15 10 -8 0
-15 -2 -15 -4z"/>
<path d="M4985 2831 c-3 -5 -1 -12 5 -16 5 -3 10 1 10 9 0 18 -6 21 -15 7z"/>
<path d="M5205 2680 c-3 -5 3 -10 14 -10 12 0 21 5 21 10 0 6 -6 10 -14 10 -8
0 -18 -4 -21 -10z"/>
<path d="M5220 2625 c-11 -13 -10 -14 4 -9 9 3 16 10 16 15 0 13 -6 11 -20 -6z"/>
<path d="M10030 7240 c0 -11 5 -20 10 -20 6 0 10 9 10 20 0 11 -4 20 -10 20
-5 0 -10 -9 -10 -20z"/>
<path d="M9600 7180 c0 -17 7 -20 40 -20 l40 0 -20 20 c-11 11 -29 20 -40 20
-13 0 -20 -7 -20 -20z"/>
<path d="M9657 7143 c-12 -11 -8 -23 8 -23 8 0 15 7 15 15 0 16 -12 20 -23 8z"/>
<path d="M9338 7027 c12 -14 102 -11 102 4 0 5 -25 9 -56 9 -44 0 -54 -3 -46
-13z"/>
<path d="M8943 6863 c16 -16 18 -16 34 0 16 16 15 17 -17 17 -32 0 -33 -1 -17
-17z"/>
<path d="M6510 6390 c0 -5 5 -10 10 -10 6 0 10 5 10 10 0 6 -4 10 -10 10 -5 0
-10 -4 -10 -10z"/>
<path d="M7230 6392 c0 -10 33 -42 43 -42 4 0 7 11 7 25 0 20 -5 25 -25 25
-14 0 -25 -4 -25 -8z"/>
<path d="M7360 6385 c0 -12 16 -15 80 -15 64 0 80 3 80 15 0 12 -16 15 -80 15
-64 0 -80 -3 -80 -15z"/>
<path d="M7600 6385 c0 -11 11 -15 40 -15 29 0 40 4 40 15 0 11 -11 15 -40 15
-29 0 -40 -4 -40 -15z"/>
<path d="M3298 5273 c6 -2 18 -2 25 0 6 3 1 5 -13 5 -14 0 -19 -2 -12 -5z"/>
<path d="M2720 4200 c0 -29 4 -40 15 -40 11 0 15 11 15 40 0 29 -4 40 -15 40
-11 0 -15 -11 -15 -40z"/>
<path d="M2763 4200 c0 -25 2 -35 4 -22 2 12 2 32 0 45 -2 12 -4 2 -4 -23z"/>
<path d="M3152 3785 c0 -16 2 -22 5 -12 2 9 2 23 0 30 -3 6 -5 -1 -5 -18z"/>
<path d="M10000 3150 c0 -5 12 -10 28 -10 21 0 24 2 12 10 -20 13 -40 13 -40
0z"/>
<path d="M8160 2920 c0 -5 18 -10 40 -10 22 0 40 5 40 10 0 6 -18 10 -40 10
-22 0 -40 -4 -40 -10z"/>
<path d="M7340 2735 c-10 -12 -10 -15 4 -15 9 0 16 7 16 15 0 8 -2 15 -4 15
-2 0 -9 -7 -16 -15z"/>
<path d="M6401 2334 c0 -11 3 -14 6 -6 3 7 2 16 -1 19 -3 4 -6 -2 -5 -13z"/>
<path d="M6430 2335 c0 -8 5 -15 10 -15 6 0 10 7 10 15 0 8 -4 15 -10 15 -5 0
-10 -7 -10 -15z"/>
<path d="M5945 2135 c-38 -36 -64 -65 -58 -65 6 0 42 29 80 65 37 36 64 65 58
64 -5 0 -41 -29 -80 -64z"/>
<path d="M6025 2130 c-3 -5 -1 -10 4 -10 6 0 11 5 11 10 0 6 -2 10 -4 10 -3 0
-8 -4 -11 -10z"/>
<path d="M6068 2110 c-7 -24 -3 -38 8 -28 3 4 4 17 2 30 l-3 23 -7 -25z"/>
<path d="M5850 2045 c-19 -23 -8 -25 14 -4 11 11 15 19 9 19 -6 0 -16 -7 -23
-15z"/>
<path d="M5985 2040 c3 -5 8 -10 11 -10 2 0 4 5 4 10 0 6 -5 10 -11 10 -5 0
-7 -4 -4 -10z"/>
<path d="M5796 2005 c-11 -8 -16 -15 -10 -15 5 0 18 7 28 15 11 8 16 15 10 15
-5 0 -18 -7 -28 -15z"/>
<path d="M5870 2016 c0 -2 7 -7 16 -10 8 -3 12 -2 9 4 -6 10 -25 14 -25 6z"/>
<path d="M5958 2003 c7 -3 16 -2 19 1 4 3 -2 6 -13 5 -11 0 -14 -3 -6 -6z"/>
<path d="M5725 1950 c-3 -5 -1 -10 4 -10 6 0 11 5 11 10 0 6 -2 10 -4 10 -3 0
-8 -4 -11 -10z"/>
</g>
</svg>
